<?xml version="1.0" encoding="UTF-8" standalone="no"?>
<!DOCTYPE svg PUBLIC "-//W3C//DTD SVG 1.1//EN"
 "http://www.w3.org/Graphics/SVG/1.1/DTD/svg11.dtd">
<!-- Generated by graphviz version 2.43.0 (0)
 -->
<!-- Title: %3 Pages: 1 -->
<svg width="960pt" height="404pt"
 viewBox="0.00 0.00 959.76 404.00" xmlns="http://www.w3.org/2000/svg" xmlns:xlink="http://www.w3.org/1999/xlink">
<g id="graph0" class="graph" transform="scale(1 1) rotate(0) translate(4 400)">
<title>%3</title>
<polygon fill="white" stroke="transparent" points="-4,4 -4,-400 955.76,-400 955.76,4 -4,4"/>
<!-- /home/mrl/Desktop/Fiverr/Projects/ansong844/Nov&#45;22/ffrx&#45;win&#45;server&#45;modules -->
<g id="node1" class="node">
<title>/home/mrl/Desktop/Fiverr/Projects/ansong844/Nov&#45;22/ffrx&#45;win&#45;server&#45;modules</title>
<ellipse fill="none" stroke="black" cx="373.72" cy="-378" rx="373.93" ry="18"/>
<text text-anchor="middle" x="373.72" y="-374.3" font-family="Times,serif" font-size="14.00">/home/mrl/Desktop/Fiverr/Projects/ansong844/Nov&#45;22/ffrx&#45;win&#45;server&#45;modules</text>
</g>
<!-- acm -->
<g id="node2" class="node">
<title>acm</title>
<ellipse fill="none" stroke="black" cx="667.72" cy="-90" rx="29.8" ry="18"/>
<text text-anchor="middle" x="667.72" y="-86.3" font-family="Times,serif" font-size="14.00">acm</text>
</g>
<!-- vpc -->
<g id="node3" class="node">
<title>vpc</title>
<ellipse fill="none" stroke="black" cx="725.72" cy="-18" rx="27" ry="18"/>
<text text-anchor="middle" x="725.72" y="-14.3" font-family="Times,serif" font-size="14.00">vpc</text>
</g>
<!-- acm&#45;&gt;vpc -->
<g id="edge1" class="edge">
<title>acm&#45;&gt;vpc</title>
<path fill="none" stroke="black" d="M680.59,-73.46C688.28,-64.18 698.19,-52.23 706.76,-41.88"/>
<polygon fill="black" stroke="black" points="709.59,-43.94 713.28,-34.01 704.2,-39.48 709.59,-43.94"/>
</g>
<!-- ad -->
<g id="node4" class="node">
<title>ad</title>
<ellipse fill="none" stroke="black" cx="792.72" cy="-306" rx="27" ry="18"/>
<text text-anchor="middle" x="792.72" y="-302.3" font-family="Times,serif" font-size="14.00">ad</text>
</g>
<!-- ad&#45;&gt;vpc -->
<g id="edge4" class="edge">
<title>ad&#45;&gt;vpc</title>
<path fill="none" stroke="black" d="M770.27,-295.52C751.04,-286.53 723.55,-271.5 704.72,-252 654.45,-199.94 645.34,-178.43 628.72,-108 625.04,-92.43 620.55,-85.76 628.72,-72 642.13,-49.39 668.97,-35.8 691.03,-28.05"/>
<polygon fill="black" stroke="black" points="692.33,-31.31 700.76,-24.89 690.16,-24.65 692.33,-31.31"/>
</g>
<!-- ffrx&#45;win&#45;server -->
<g id="node5" class="node">
<title>ffrx&#45;win&#45;server</title>
<ellipse fill="none" stroke="black" cx="792.72" cy="-234" rx="78.79" ry="18"/>
<text text-anchor="middle" x="792.72" y="-230.3" font-family="Times,serif" font-size="14.00">ffrx&#45;win&#45;server</text>
</g>
<!-- ad&#45;&gt;ffrx&#45;win&#45;server -->
<g id="edge2" class="edge">
<title>ad&#45;&gt;ffrx&#45;win&#45;server</title>
<path fill="none" stroke="black" d="M792.72,-287.7C792.72,-279.98 792.72,-270.71 792.72,-262.11"/>
<polygon fill="black" stroke="black" points="796.22,-262.1 792.72,-252.1 789.22,-262.1 796.22,-262.1"/>
</g>
<!-- common -->
<g id="node6" class="node">
<title>common</title>
<ellipse fill="none" stroke="black" cx="901.72" cy="-90" rx="50.09" ry="18"/>
<text text-anchor="middle" x="901.72" y="-86.3" font-family="Times,serif" font-size="14.00">common</text>
</g>
<!-- ad&#45;&gt;common -->
<g id="edge3" class="edge">
<title>ad&#45;&gt;common</title>
<path fill="none" stroke="black" d="M815.77,-296.56C835.67,-288.16 863.79,-273.41 880.72,-252 911.13,-213.52 909.9,-152.97 906,-118.13"/>
<polygon fill="black" stroke="black" points="909.47,-117.67 904.73,-108.2 902.52,-118.56 909.47,-117.67"/>
</g>
<!-- ffrx&#45;win&#45;server&#45;&gt;vpc -->
<g id="edge9" class="edge">
<title>ffrx&#45;win&#45;server&#45;&gt;vpc</title>
<path fill="none" stroke="black" d="M786.74,-215.86C783.17,-205.5 778.59,-192.03 774.72,-180 759.6,-133.02 743.1,-77.95 733.62,-45.91"/>
<polygon fill="black" stroke="black" points="736.88,-44.58 730.69,-35.98 730.16,-46.56 736.88,-44.58"/>
</g>
<!-- ffrx&#45;win&#45;server&#45;&gt;common -->
<g id="edge8" class="edge">
<title>ffrx&#45;win&#45;server&#45;&gt;common</title>
<path fill="none" stroke="black" d="M832.53,-218.32C850.45,-209.76 870.31,-197.21 882.72,-180 895.67,-162.02 900.14,-137.03 901.52,-118.1"/>
<polygon fill="black" stroke="black" points="905.02,-118.19 902.02,-108.03 898.03,-117.85 905.02,-118.19"/>
</g>
<!-- bastion -->
<g id="node7" class="node">
<title>bastion</title>
<ellipse fill="none" stroke="black" cx="828.72" cy="-162" rx="44.69" ry="18"/>
<text text-anchor="middle" x="828.72" y="-158.3" font-family="Times,serif" font-size="14.00">bastion</text>
</g>
<!-- ffrx&#45;win&#45;server&#45;&gt;bastion -->
<g id="edge11" class="edge">
<title>ffrx&#45;win&#45;server&#45;&gt;bastion</title>
<path fill="none" stroke="black" d="M801.43,-216.05C805.63,-207.89 810.76,-197.91 815.44,-188.82"/>
<polygon fill="black" stroke="black" points="818.62,-190.28 820.08,-179.79 812.4,-187.08 818.62,-190.28"/>
</g>
<!-- lb -->
<g id="node8" class="node">
<title>lb</title>
<ellipse fill="none" stroke="black" cx="700.72" cy="-162" rx="27" ry="18"/>
<text text-anchor="middle" x="700.72" y="-158.3" font-family="Times,serif" font-size="14.00">lb</text>
</g>
<!-- ffrx&#45;win&#45;server&#45;&gt;lb -->
<g id="edge10" class="edge">
<title>ffrx&#45;win&#45;server&#45;&gt;lb</title>
<path fill="none" stroke="black" d="M770.91,-216.41C757.45,-206.17 740.12,-192.98 726.04,-182.27"/>
<polygon fill="black" stroke="black" points="727.84,-179.24 717.77,-175.97 723.61,-184.81 727.84,-179.24"/>
</g>
<!-- common&#45;&gt;vpc -->
<g id="edge7" class="edge">
<title>common&#45;&gt;vpc</title>
<path fill="none" stroke="black" d="M869.44,-76.16C837.74,-63.55 789.65,-44.43 757.96,-31.83"/>
<polygon fill="black" stroke="black" points="758.88,-28.42 748.29,-27.98 756.29,-34.93 758.88,-28.42"/>
</g>
<!-- bastion&#45;&gt;vpc -->
<g id="edge6" class="edge">
<title>bastion&#45;&gt;vpc</title>
<path fill="none" stroke="black" d="M820.69,-144.14C811.51,-125.63 795.46,-95.43 777.72,-72 769.12,-60.65 758.26,-49.22 748.69,-39.9"/>
<polygon fill="black" stroke="black" points="751.02,-37.28 741.36,-32.92 746.19,-42.35 751.02,-37.28"/>
</g>
<!-- bastion&#45;&gt;common -->
<g id="edge5" class="edge">
<title>bastion&#45;&gt;common</title>
<path fill="none" stroke="black" d="M845.28,-145.12C854.83,-135.96 867,-124.29 877.59,-114.13"/>
<polygon fill="black" stroke="black" points="880.17,-116.51 884.96,-107.06 875.32,-111.46 880.17,-116.51"/>
</g>
<!-- lb&#45;&gt;acm -->
<g id="edge13" class="edge">
<title>lb&#45;&gt;acm</title>
<path fill="none" stroke="black" d="M692.9,-144.41C688.99,-136.13 684.18,-125.92 679.81,-116.66"/>
<polygon fill="black" stroke="black" points="682.91,-115.02 675.48,-107.47 676.58,-118.01 682.91,-115.02"/>
</g>
<!-- lb&#45;&gt;vpc -->
<g id="edge12" class="edge">
<title>lb&#45;&gt;vpc</title>
<path fill="none" stroke="black" d="M703.73,-143.87C707.99,-119.67 715.82,-75.21 720.89,-46.39"/>
<polygon fill="black" stroke="black" points="724.4,-46.64 722.69,-36.19 717.51,-45.43 724.4,-46.64"/>
</g>
<!-- rds -->
<g id="node9" class="node">
<title>rds</title>
<ellipse fill="none" stroke="black" cx="792.72" cy="-378" rx="27" ry="18"/>
<text text-anchor="middle" x="792.72" y="-374.3" font-family="Times,serif" font-size="14.00">rds</text>
</g>
<!-- rds&#45;&gt;vpc -->
<g id="edge16" class="edge">
<title>rds&#45;&gt;vpc</title>
<path fill="none" stroke="black" d="M771.93,-366.19C716.91,-337.26 571.72,-258.66 571.72,-235 571.72,-235 571.72,-235 571.72,-161 571.72,-115.85 588.22,-103.35 620.72,-72 640.94,-52.49 669.77,-38.64 692.1,-30"/>
<polygon fill="black" stroke="black" points="693.38,-33.26 701.54,-26.51 690.95,-26.69 693.38,-33.26"/>
</g>
<!-- rds&#45;&gt;ad -->
<g id="edge15" class="edge">
<title>rds&#45;&gt;ad</title>
<path fill="none" stroke="black" d="M792.72,-359.7C792.72,-351.98 792.72,-342.71 792.72,-334.11"/>
<polygon fill="black" stroke="black" points="796.22,-334.1 792.72,-324.1 789.22,-334.1 796.22,-334.1"/>
</g>
<!-- rds&#45;&gt;common -->
<g id="edge14" class="edge">
<title>rds&#45;&gt;common</title>
<path fill="none" stroke="black" d="M809.08,-363.45C833.54,-342.28 879.37,-298.88 903.72,-252 926.11,-208.88 929.04,-191.87 920.72,-144 919.19,-135.24 916.35,-126.01 913.32,-117.75"/>
<polygon fill="black" stroke="black" points="916.51,-116.29 909.61,-108.25 909.99,-118.84 916.51,-116.29"/>
</g>
</g>
</svg>
